<?xml version="1.0" encoding="UTF-8" standalone="no"?>
<svg
   xmlns:osb="http://www.openswatchbook.org/uri/2009/osb"
   xmlns:dc="http://purl.org/dc/elements/1.1/"
   xmlns:cc="http://creativecommons.org/ns#"
   xmlns:rdf="http://www.w3.org/1999/02/22-rdf-syntax-ns#"
   xmlns:svg="http://www.w3.org/2000/svg"
   xmlns="http://www.w3.org/2000/svg"
   xmlns:sodipodi="http://sodipodi.sourceforge.net/DTD/sodipodi-0.dtd"
   xmlns:inkscape="http://www.inkscape.org/namespaces/inkscape"
   width="64"
   height="64"
   viewBox="0 0 64 64"
   version="1.1"
   id="svg16"
   sodipodi:docname="q4os-user-manual.svg"
   inkscape:version="0.92.1 r15371">
  <metadata
     id="metadata20">
    <rdf:RDF>
      <cc:Work
         rdf:about="">
        <dc:format>image/svg+xml</dc:format>
        <dc:type
           rdf:resource="http://purl.org/dc/dcmitype/StillImage" />
        <dc:title>x-office-drawing</dc:title>
      </cc:Work>
    </rdf:RDF>
  </metadata>
  <sodipodi:namedview
     pagecolor="#ffffff"
     bordercolor="#666666"
     borderopacity="1"
     objecttolerance="10"
     gridtolerance="10"
     guidetolerance="10"
     inkscape:pageopacity="0"
     inkscape:pageshadow="2"
     inkscape:window-width="1366"
     inkscape:window-height="703"
     id="namedview18"
     showgrid="false"
     inkscape:zoom="8.46875"
     inkscape:cx="32"
     inkscape:cy="32"
     inkscape:window-x="-3"
     inkscape:window-y="-4"
     inkscape:window-maximized="1"
     inkscape:current-layer="svg16"
     fit-margin-top="0"
     fit-margin-left="0"
     fit-margin-right="0"
     fit-margin-bottom="0" />
  <!-- Generator: Sketch 40.3 (33839) - http://www.bohemiancoding.com/sketch -->
  <title
     id="title2">x-office-drawing</title>
  <desc
     id="desc4">Created with Sketch.</desc>
  <path
     d="M 52.657592,60 H 12.34375 C 11.506088,60 11,59.365333 11,58.666666 V 9.3333351 C 11,8.5600018 11.506088,8.0000018 12.34375,8.0000018 H 40.575924 L 54,21.333334 V 58.666666 C 53.95704,60 52.657592,60 52.657592,60 Z"
     id="path14361-6"
     inkscape:connector-curvature="0"
     style="fill:#000000;fill-opacity:1;fill-rule:evenodd;stroke:none;stroke-width:1.33853149;filter:url(#filter4568);opacity:0.2" />
  <defs
     id="defs6">
    <filter
       inkscape:collect="always"
       style="color-interpolation-filters:sRGB"
       id="filter4568"
       x="-0.013255814"
       width="1.0265116"
       y="-0.010961539"
       height="1.0219231">
      <feGaussianBlur
         inkscape:collect="always"
         stdDeviation="0.2375"
         id="feGaussianBlur4570" />
    </filter>
    <linearGradient
       osb:paint="solid"
       id="linearGradient5606">
      <stop
         style="stop-color:#000000;stop-opacity:1;"
         offset="0"
         id="stop5608" />
    </linearGradient>
  </defs>
  <path
     d="M 52.657592,59 H 12.34375 C 11.506088,59 11,58.365333 11,57.666667 V 8.3333346 C 11,7.5600013 11.506088,7.0000013 12.34375,7.0000013 H 40.575924 L 54,20.333334 V 57.666667 C 53.95704,59 52.657592,59 52.657592,59 Z"
     id="path14361"
     inkscape:connector-curvature="0"
     style="fill:#3f51b5;fill-opacity:1;fill-rule:evenodd;stroke:none;stroke-width:1.33853149" />
  <path
     d="m 41.810844,20.370668 c -0.74175,0 -1.248344,-0.634667 -1.248344,-1.370667 V 7.0000013 L 54,20.333334 Z"
     id="path14363"
     inkscape:connector-curvature="0"
     style="fill:#448aff;fill-opacity:1;fill-rule:evenodd;stroke:none;stroke-width:1.33853149" />
  <style
     id="style4572"
     type="text/css">
	.st0{display:none;}
	.st1{display:inline;}
	.st2{fill:#303F9F;}
	.st3{fill:#3F51B5;}
	.st4{fill:#448AFF;}
	.st5{fill:#FF5722;}
</style>
  <g
     id="g4659"
     transform="matrix(0.03777576,0,0,0.03777576,8.7952482,35.500807)"
     style="fill:#fafafa">
    <g
       transform="translate(296.61224,-264.94132)"
       id="g4590"
       style="fill:#fafafa">
      <g
         id="g4576"
         class="st0"
         style="display:none;fill:#fafafa">
        <path
           id="path4574"
           d="m 431.3,357.4 c -9.9,35 -37.4,62.5 -72.4,72.4 v 232 C 520.5,648.4 649.2,519.2 662,357.4 Z"
           class="st1"
           inkscape:connector-curvature="0"
           style="display:inline;fill:#fafafa" />
      </g>
      <g
         id="g4580"
         style="fill:#fafafa">
        <path
           id="path4578"
           d="M 229.2,357.4 H 0 C 12.8,519.7 142.3,649.2 304.6,662 V 430.7 c -36.4,-9.2 -65.2,-37.3 -75.4,-73.3 z"
           class="st2"
           inkscape:connector-curvature="0"
           style="fill:#fafafa" />
      </g>
      <g
         id="g4584"
         style="fill:#fafafa">
        <path
           id="path4582"
           d="M 304.6,226.9 V 0 C 142.8,12.8 13.6,141.5 0.1,303.1 h 228.3 c 9.4,-37.4 38.8,-66.8 76.2,-76.2 z"
           class="st3"
           inkscape:connector-curvature="0"
           style="fill:#fafafa" />
      </g>
      <g
         id="g4588"
         style="fill:#fafafa">
        <path
           id="path4586"
           d="M 432.1,303.1 H 661.8 C 648.5,142 520,13.5 358.9,0.1 v 227.6 c 36,10.2 64.1,39 73.2,75.4 z"
           class="st4"
           inkscape:connector-curvature="0"
           style="fill:#fafafa" />
      </g>
    </g>
    <g
       transform="translate(296.61224,-264.94132)"
       id="g4594"
       style="fill:#fafafa">
      <rect
         id="rect4592"
         height="260.10001"
         width="142.5"
         class="st5"
         transform="matrix(0.7071,-0.7071,0.7071,0.7071,-201.4142,494.5681)"
         y="360.39999"
         x="425"
         style="fill:#fafafa" />
    </g>
  </g>
</svg>
