<?xml version="1.0" encoding="UTF-8" standalone="no"?>
<svg
   xmlns:osb="http://www.openswatchbook.org/uri/2009/osb"
   xmlns:dc="http://purl.org/dc/elements/1.1/"
   xmlns:cc="http://creativecommons.org/ns#"
   xmlns:rdf="http://www.w3.org/1999/02/22-rdf-syntax-ns#"
   xmlns:svg="http://www.w3.org/2000/svg"
   xmlns="http://www.w3.org/2000/svg"
   xmlns:sodipodi="http://sodipodi.sourceforge.net/DTD/sodipodi-0.dtd"
   xmlns:inkscape="http://www.inkscape.org/namespaces/inkscape"
   width="64"
   height="64"
   viewBox="0 0 64 64"
   version="1.1"
   id="svg16"
   sodipodi:docname="q4os-user-manual.svg"
   inkscape:version="0.92.1 r15371">
  <metadata
     id="metadata20">
    <rdf:RDF>
      <cc:Work
         rdf:about="">
        <dc:format>image/svg+xml</dc:format>
        <dc:type
           rdf:resource="http://purl.org/dc/dcmitype/StillImage" />
        <dc:title>x-office-drawing</dc:title>
      </cc:Work>
    </rdf:RDF>
  </metadata>
  <sodipodi:namedview
     pagecolor="#ffffff"
     bordercolor="#666666"
     borderopacity="1"
     objecttolerance="10"
     gridtolerance="10"
     guidetolerance="10"
     inkscape:pageopacity="0"
     inkscape:pageshadow="2"
     inkscape:window-width="1366"
     inkscape:window-height="703"
     id="namedview18"
     showgrid="false"
     inkscape:zoom="8.46875"
     inkscape:cx="15.237681"
     inkscape:cy="28.744235"
     inkscape:window-x="-3"
     inkscape:window-y="-4"
     inkscape:window-maximized="1"
     inkscape:current-layer="svg16"
     fit-margin-top="0"
     fit-margin-left="0"
     fit-margin-right="0"
     fit-margin-bottom="0" />
  <!-- Generator: Sketch 40.3 (33839) - http://www.bohemiancoding.com/sketch -->
  <title
     id="title2">x-office-drawing</title>
  <desc
     id="desc4">Created with Sketch.</desc>
  <path
     d="M 52.657592,60 H 12.34375 C 11.506088,60 11,59.365333 11,58.666666 V 9.3333351 C 11,8.5600018 11.506088,8.0000018 12.34375,8.0000018 H 40.575924 L 54,21.333334 V 58.666666 C 53.95704,60 52.657592,60 52.657592,60 Z"
     id="path14361-6"
     inkscape:connector-curvature="0"
     style="fill:#000000;fill-opacity:1;fill-rule:evenodd;stroke:none;stroke-width:1.33853149;filter:url(#filter4568);opacity:0.2" />
  <defs
     id="defs6">
    <filter
       inkscape:collect="always"
       style="color-interpolation-filters:sRGB"
       id="filter4568"
       x="-0.013255814"
       width="1.0265116"
       y="-0.010961539"
       height="1.0219231">
      <feGaussianBlur
         inkscape:collect="always"
         stdDeviation="0.2375"
         id="feGaussianBlur4570" />
    </filter>
    <linearGradient
       osb:paint="solid"
       id="linearGradient5606">
      <stop
         style="stop-color:#000000;stop-opacity:1;"
         offset="0"
         id="stop5608" />
    </linearGradient>
  </defs>
  <path
     d="M 52.657592,59 H 12.34375 C 11.506088,59 11,58.365333 11,57.666667 V 8.3333346 C 11,7.5600013 11.506088,7.0000013 12.34375,7.0000013 H 40.575924 L 54,20.333334 V 57.666667 C 53.95704,59 52.657592,59 52.657592,59 Z"
     id="path14361"
     inkscape:connector-curvature="0"
     style="fill:#3f51b5;fill-opacity:1;fill-rule:evenodd;stroke:none;stroke-width:1.33853149" />
  <path
     d="m 41.810844,20.370668 c -0.74175,0 -1.248344,-0.634667 -1.248344,-1.370667 V 7.0000013 L 54,20.333334 Z"
     id="path14363"
     inkscape:connector-curvature="0"
     style="fill:#448aff;fill-opacity:1;fill-rule:evenodd;stroke:none;stroke-width:1.33853149" />
  <style
     id="style4572"
     type="text/css">
	.st0{display:none;}
	.st1{display:inline;}
	.st2{fill:#303F9F;}
	.st3{fill:#3F51B5;}
	.st4{fill:#448AFF;}
	.st5{fill:#FF5722;}
</style>
  <g
     style="fill:#fafafa"
     id="g4590"
     transform="matrix(0.03777576,0,0,0.03777576,20.000001,25.492447)">
    <g
       style="display:none;fill:#fafafa"
       class="st0"
       id="g4576">
      <path
         style="display:inline;fill:#fafafa"
         inkscape:connector-curvature="0"
         class="st1"
         d="m 431.3,357.4 c -9.9,35 -37.4,62.5 -72.4,72.4 v 232 C 520.5,648.4 649.2,519.2 662,357.4 Z"
         id="path4574" />
    </g>
    <g
       style="fill:#fafafa"
       id="g4580" />
    <g
       style="fill:#fafafa"
       id="g4584" />
    <g
       style="fill:#fafafa"
       id="g4588" />
  </g>
  <g
     transform="matrix(0.74649419,0,0,0.74626866,8.612233,14.115626)"
     id="g4646"
     style="fill:#fafafa;fill-opacity:1">
    <path
       id="path8-3"
       d="M 26.853489,33.335952 H 15.254999 C 15.902733,41.549018 22.455981,48.102266 30.669047,48.75 V 37.045242 c -1.841994,-0.465559 -3.299395,-1.887538 -3.815558,-3.70929 z"
       class="st2"
       inkscape:connector-curvature="0"
       style="fill:#fafafa;fill-opacity:1;stroke-width:0.05060423" />
    <path
       id="path12-6"
       d="M 30.669047,26.7321 V 15.25 c -8.187764,0.647734 -14.72583,7.160499 -15.408988,15.338142 h 11.552946 c 0.47568,-1.892598 1.963444,-3.380362 3.856042,-3.856042 z"
       class="st3"
       inkscape:connector-curvature="0"
       style="fill:#fafafa;fill-opacity:1;stroke-width:0.05060423" />
    <path
       id="path16-9"
       d="M 37.121087,30.588142 H 48.744878 C 48.071842,22.435801 41.569199,15.933157 33.416857,15.25506 v 11.517523 c 1.821752,0.516163 3.243731,1.973565 3.70423,3.815559 z"
       class="st4"
       inkscape:connector-curvature="0"
       style="fill:#fafafa;fill-opacity:1;stroke-width:0.05060423" />
    <rect
       id="rect22-1"
       height="13.162032"
       width="7.2110324"
       class="st5"
       transform="rotate(-45)"
       y="50.297688"
       x="-3.393923"
       style="fill:#fafafa;fill-opacity:1;stroke-width:0.05060374" />
  </g>
</svg>
